HIERARCHY
ROOT Hips
{
	OFFSET 0.000000 0.000000 0.000000
	CHANNELS 6 Xposition Yposition Zposition Zrotation Yrotation Xrotation 
	JOINT LHipJoint
	{
		OFFSET 0.000000 0.000000 0.000000
		CHANNELS 3 Zrotation Yrotation Xrotation
		JOINT LeftUpLeg
		{
			OFFSET 1.363060 -1.794630 0.839290
			CHANNELS 3 Zrotation Yrotation Xrotation
			JOINT LeftLeg
			{
				OFFSET 2.448110 -6.726130 0.000000
				CHANNELS 3 Zrotation Yrotation Xrotation
				JOINT LeftFoot
				{
					OFFSET 2.562200 -7.039590 0.000000
					CHANNELS 3 Zrotation Yrotation Xrotation
					JOINT LeftToeBase
					{
						OFFSET 0.157640 -0.433110 2.322550
						CHANNELS 3 Zrotation Yrotation Xrotation
						End Site
						{
							OFFSET 0.000000 0.000000 0.000000
						}
					}
				}
			}
		}
	}
	JOINT RHipJoint
	{
		OFFSET 0.000000 0.000000 0.000000
		CHANNELS 3 Zrotation Yrotation Xrotation
		JOINT RightUpLeg
		{
			OFFSET -1.305520 -1.794630 0.839290
			CHANNELS 3 Zrotation Yrotation Xrotation
			JOINT RightLeg
			{
				OFFSET -2.542530 -6.985550 0.000000
				CHANNELS 3 Zrotation Yrotation Xrotation
				JOINT RightFoot
				{
					OFFSET -2.568260 -7.056230 0.000000
					CHANNELS 3 Zrotation Yrotation Xrotation
					JOINT RightToeBase
					{
						OFFSET -0.164730 -0.452590 2.363150
						CHANNELS 3 Zrotation Yrotation Xrotation
						End Site
						{
							OFFSET 0.000000 0.000000 0.000000
						}
					}
				}
			}
		}
	}
	JOINT LowerBack
	{
		OFFSET 0.000000 0.000000 0.000000
		CHANNELS 3 Zrotation Yrotation Xrotation
		JOINT Spine
		{
			OFFSET 0.028270 2.035590 -0.193380
			CHANNELS 3 Zrotation Yrotation Xrotation
			JOINT Spine1
			{
				OFFSET 0.056720 2.048850 -0.042750
				CHANNELS 3 Zrotation Yrotation Xrotation
				JOINT Neck
				{
					OFFSET 0.000000 0.000000 0.000000
					CHANNELS 3 Zrotation Yrotation Xrotation
					JOINT Neck1
					{
						OFFSET -0.054170 1.746240 0.172020
						CHANNELS 3 Zrotation Yrotation Xrotation
						JOINT Head
						{
							OFFSET 0.104070 1.761360 -0.123970
							CHANNELS 3 Zrotation Yrotation Xrotation
							End Site
							{
								OFFSET 0.000000 0.000000 0.000000
							}
						}
					}
				}
				JOINT LeftShoulder
				{
					OFFSET 0.000000 0.000000 0.000000
					CHANNELS 3 Zrotation Yrotation Xrotation
					JOINT LeftArm
					{
						OFFSET 3.362410 1.200890 -0.311210
						CHANNELS 3 Zrotation Yrotation Xrotation
						JOINT LeftForeArm
						{
							OFFSET 4.983000 -0.000000 -0.000000
							CHANNELS 3 Zrotation Yrotation Xrotation
							JOINT LeftHand
							{
								OFFSET 3.483560 -0.000000 -0.000000
								CHANNELS 3 Zrotation Yrotation Xrotation
								JOINT LeftFingerBase
								{
									OFFSET 0.000000 0.000000 0.000000
									CHANNELS 3 Zrotation Yrotation Xrotation
									JOINT LeftHandIndex1
									{
										OFFSET 0.715260 -0.000000 -0.000000
										CHANNELS 3 Zrotation Yrotation Xrotation
										End Site
										{
											OFFSET 0.000000 0.000000 0.000000
										}
									}
								}
								JOINT LThumb
								{
									OFFSET 0.000000 0.000000 0.000000
									CHANNELS 3 Zrotation Yrotation Xrotation
									End Site
									{
										OFFSET 0.000000 0.000000 0.000000
									}
								}
							}
						}
					}
				}
				JOINT RightShoulder
				{
					OFFSET 0.000000 0.000000 0.000000
					CHANNELS 3 Zrotation Yrotation Xrotation
					JOINT RightArm
					{
						OFFSET -3.136600 1.374050 -0.404650
						CHANNELS 3 Zrotation Yrotation Xrotation
						JOINT RightForeArm
						{
							OFFSET -5.241900 -0.000000 -0.000000
							CHANNELS 3 Zrotation Yrotation Xrotation
							JOINT RightHand
							{
								OFFSET -3.444170 -0.000000 -0.000000
								CHANNELS 3 Zrotation Yrotation Xrotation
								JOINT RightFingerBase
								{
									OFFSET 0.000000 0.000000 0.000000
									CHANNELS 3 Zrotation Yrotation Xrotation
									JOINT RightHandIndex1
									{
										OFFSET -0.622530 -0.000000 -0.000000
										CHANNELS 3 Zrotation Yrotation Xrotation
										End Site
										{
											OFFSET 0.000000 0.000000 0.000000
										}
									}
								}
								JOINT RThumb
								{
									OFFSET 0.000000 0.000000 0.000000
									CHANNELS 3 Zrotation Yrotation Xrotation
									End Site
									{
										OFFSET 0.000000 0.000000 0.000000
									}
								}
							}
						}
					}
				}
			}
		}
	}
}
MOTION
Frames: 6
Frame Time: 0.008333
20.305382 18.787129 56.351015 0.644781 1.420442 9.577728 -15.245483 4.047520 4.670516 7.791707 -0.207602 -23.632546 -19.285531 -25.416170 45.048338 -29.134145 48.337296 -20.328308 -0.381742 0.369586 -2.760585 14.663289 -3.759473 4.473784 -3.358444 3.512686 -24.498874 11.377696 16.444404 37.183176 20.239299 -33.254115 -22.559097 -0.164671 -0.546846 1.148175 0.806803 -0.590453 2.840842 0.832530 -0.448245 -4.314481 -1.160282 -0.625548 -4.180256 -2.326271 0.448763 -2.251227 6.244894 -6.105138 14.101394 -1.924940 -4.819819 -22.797119 16.129431 -7.295074 -1.229045 -88.617052 -36.577410 41.412406 -176.483432 -55.634743 -163.851691 4.775605 4.670086 11.919027 -2.416238 -0.173538 0.000000 0.000000 0.000000 0.000000 0.000000 0.000000 0.000000 -14.886065 6.188547 2.431127 73.775260 39.971644 21.790950 150.218138 56.108514 164.145477 -5.735252 -2.489207 25.588451 3.126612 -0.289449 0.000000 0.000000 0.000000 0.000000 0.000000 0.000000 0.000000
20.264684 18.800201 56.364269 0.760562 1.822706 9.778321 -15.124721 3.896649 4.505159 7.584892 0.221683 -24.519229 -20.294520 -25.683152 46.542232 -28.542452 48.953608 -19.475925 -0.414132 0.223380 -2.877348 14.706606 -3.769002 4.549903 -3.394542 3.608870 -24.416524 10.379651 15.401107 35.956939 20.149156 -32.516970 -21.716911 -0.163950 -0.544435 1.163093 0.753748 -0.571436 2.819660 0.831143 -0.428384 -4.312024 -1.230281 -0.620675 -4.174191 -2.270529 0.460484 -2.256265 6.248940 -6.238711 14.085460 -1.891579 -4.948432 -22.939453 16.217280 -7.255161 -1.145748 -88.867650 -36.884422 41.852271 -176.415050 -55.135343 -163.793930 4.860565 4.618227 11.813758 -2.465364 -0.137093 0.000000 0.000000 0.000000 0.000000 0.000000 0.000000 0.000000 -15.100753 6.133769 2.351890 73.785863 39.621485 22.100315 151.717409 55.509965 165.911881 -5.586956 -2.859822 25.528576 3.074327 -0.175747 0.000000 0.000000 0.000000 0.000000 0.000000 0.000000 0.000000
20.223705 18.819076 56.371501 0.926656 2.297251 9.963603 -14.993811 3.653777 4.379668 7.775066 -0.188284 -25.046324 -21.705788 -25.776831 47.738705 -28.012978 50.716412 -18.211011 -0.571230 0.060823 -3.808429 14.724872 -3.756210 4.569225 -3.375350 3.449091 -24.359945 9.594183 14.680986 34.954146 20.126964 -32.096195 -20.904131 -0.146372 -0.487445 1.183716 0.704594 -0.576901 2.846322 0.832146 -0.434932 -4.309487 -1.324940 -0.644224 -4.243206 -2.233521 0.432485 -2.186322 6.158741 -6.284656 14.105730 -1.570730 -4.997828 -23.083433 16.359073 -7.291042 -1.101244 -88.953437 -37.068442 41.965092 -176.001088 -54.380318 -164.270533 5.034245 4.558439 11.989664 -2.543101 -0.106346 0.000000 0.000000 0.000000 0.000000 0.000000 0.000000 0.000000 -15.373863 6.164424 2.165496 73.604677 39.188625 21.047158 151.378559 54.248007 164.827658 -5.978834 -2.734413 26.310622 3.225941 -0.167946 0.000000 0.000000 0.000000 0.000000 0.000000 0.000000 0.000000
20.187746 18.832968 56.378931 1.058903 2.637479 10.115793 -14.867090 3.474121 4.261108 7.737975 -0.112397 -25.650132 -22.865416 -25.888867 49.016415 -27.293259 51.209704 -17.836422 -0.691956 0.095347 -4.625079 14.751952 -3.741024 4.592004 -3.390102 3.411913 -24.252114 8.894799 13.989667 34.040028 20.083173 -31.638977 -20.204226 -0.148918 -0.495803 1.151245 0.645345 -0.572010 2.884812 0.831517 -0.427212 -4.307818 -1.373228 -0.643583 -4.271867 -2.199469 0.419553 -2.163069 6.103246 -6.372867 14.152928 -1.410828 -5.080559 -23.184556 16.456655 -7.325228 -1.110249 -89.124648 -37.275592 42.196713 -176.305755 -53.871929 -163.663754 5.440991 4.332331 11.930954 -2.696776 -0.014115 0.000000 0.000000 0.000000 0.000000 0.000000 0.000000 0.000000 -15.554782 6.212579 2.125247 73.515672 38.934317 20.759892 152.071426 53.350336 165.854604 -6.221456 -2.156645 26.839108 3.385114 -0.316944 0.000000 0.000000 0.000000 0.000000 0.000000 0.000000 0.000000
20.151216 18.847628 56.389405 1.191398 3.022214 10.297269 -14.746994 3.335849 4.127507 7.559093 0.083425 -26.392614 -23.960735 -26.098560 50.397845 -26.263482 52.069426 -16.582629 -0.665549 0.229574 -4.525363 14.797707 -3.754598 4.632723 -3.296580 3.021698 -24.339141 8.222853 13.404032 33.264999 19.931422 -30.887552 -19.447909 -0.180421 -0.598004 1.128866 0.600310 -0.596402 2.883517 0.833786 -0.448737 -4.307835 -1.382003 -0.672334 -4.236251 -2.191226 0.405382 -2.199262 6.027578 -6.463637 14.217836 -1.284821 -5.166479 -23.357092 16.548794 -7.267382 -1.097471 -89.329507 -37.315097 42.462269 -175.539321 -53.407978 -164.341325 4.340724 4.512646 11.959582 -2.351152 -0.079921 0.000000 0.000000 0.000000 0.000000 0.000000 0.000000 0.000000 -15.660776 6.153702 2.199586 73.421091 38.852525 20.693057 152.913403 52.608219 167.182242 -6.448466 -2.053326 27.171668 3.508848 -0.313286 0.000000 0.000000 0.000000 0.000000 0.000000 0.000000 0.000000
20.120567 18.859325 56.399611 1.346271 3.325088 10.377849 -14.658197 3.208721 4.041373 7.573199 0.002557 -26.886866 -24.789198 -25.952868 51.250546 -27.107226 52.591497 -16.865223 -0.460587 0.648919 -3.440703 14.827001 -3.827163 4.630786 -3.186090 2.618662 -24.363954 7.589679 12.923456 32.625401 19.858925 -30.365650 -18.552191 -0.173256 -0.575570 1.000102 0.583079 -0.573471 2.995707 0.832119 -0.428536 -4.305813 -1.501581 -0.673457 -4.275058 -2.150999 0.374090 -2.156073 5.925144 -6.533803 14.257853 -1.007896 -5.242333 -23.445794 16.587395 -7.256487 -1.054497 -89.436276 -37.404833 42.694787 -175.261495 -53.088045 -164.151286 3.223298 4.892553 11.982567 -2.000491 -0.227811 0.000000 0.000000 0.000000 0.000000 0.000000 0.000000 0.000000 -15.860323 6.172596 2.094275 73.339930 38.515194 20.388648 153.429117 51.793959 167.551311 -6.727655 -2.036951 27.596332 3.621921 -0.273286 0.000000 0.000000 0.000000 0.000000 0.000000 0.000000 0.000000
